<svg xmlns="http://www.w3.org/2000/svg" height="800" width="1200" viewBox="-76.1145 -25.13275 659.659 150.7965"><path d="M241.912 16.361v62.846h17.785c21.24 0 34.851-8.582 34.851-31.813 0-22.797-13.265-31.032-33.114-31.032h-19.522zm19.609 11.009c11.702 0 19.59 6.067 19.59 19.677 0 16.21-7.803 20.892-21.149 20.892h-4.699V27.37zm38.049-11.441V26.07h12.745V15.929zm.091 19.59v43.688h12.566V35.519zm53.654 2.773c-5.113-2.339-10.053-3.814-17.163-3.814-12.221 0-18.724 5.202-18.724 13.264 0 8.233 5.289 11.962 12.05 13.521l4.94 1.127c4.42.954 7.195 2.427 7.195 4.594 0 2.688-2.775 4.076-6.762 4.076-5.027 0-10.921-1.648-14.563-3.728l-3.204 9.014c4.42 2.341 9.965 4.073 17.683 4.073 11.703 0 18.894-4.593 18.894-14.216 0-6.414-3.983-10.054-9.272-11.614-1.476-.433-4.162-1.215-6.069-1.647-4.594-.953-9.188-1.905-9.188-5.374 0-2.599 2.772-3.987 7.281-3.987 5.027 0 9.883 1.3 13.35 3.207zm5.376-2.859v64.704l12.481-1.646V78.687c2.168.868 6.242 1.561 8.842 1.561 15.256 0 20.196-8.756 20.196-24.272 0-13.782-6.847-21.582-17.858-21.582-4.071 0-8.838 1.386-11.353 3.294v-2.254h-12.308zm12.568 34.498V46.094c2.082-1.301 4.335-1.907 6.415-1.907 5.635 0 10.229 2.601 10.229 13.004 0 11.788-4.939 14.042-11.009 14.042-1.995-.001-4.075-.608-5.635-1.302zm76.362-19.503v1.388h-5.981c-11.528 0-19.589 3.901-19.589 14.735 0 6.85 2.253 13.696 14.907 13.696 4.162 0 9.103-1.907 12.136-4.854 2.774 3.294 6.154 4.335 11.097 4.335 1.041 0 2.772-.088 3.555-.263v-9.1c-2.777-.089-3.294-.954-3.294-5.201V52.941c0-13.782-4.596-18.725-17.685-18.725-7.803 0-14.215 1.821-18.896 4.335l2.514 8.15c3.467-1.822 7.976-3.208 12.915-3.208 6.327.001 8.321 3.294 8.321 6.935zm0 9.623v8.06c-2.168 2.081-4.942 3.122-7.368 3.122-3.468 0-5.462-2.254-5.462-5.374 0-3.469 2.687-5.895 7.022-5.895 1.473 0 4.42 0 5.808.087zm-42.909-43.95v63.106h12.657V16.101zm90.239 19.42l-8.669 29.036h-1.647l-9.275-29.036h-13.35l17.597 43.772c-2.602 9.361-6.066 11.096-12.569 11.096-1.3 0-2.514-.086-3.382-.261l-1.473 9.796c1.994.521 4.333.607 6.591.607 11.44 0 16.899-5.895 21.235-17.599L507.43 35.52h-12.479z" fill="#636466"/><path d="M48.251 96.426c26.626 0 48.252-21.562 48.252-48.202C96.503 21.584 74.877 0 48.251 0 21.586 0 0 21.584 0 48.224c0 26.64 21.586 48.202 48.251 48.202" fill="#C00C3F"/><path fill="#FFF" d="M59.76 69.366v-3.803h-9.572v-38.5h-3.877v42.303zM32.844 38.605a5.781 5.781 0 005.778-5.778c0-3.18-2.577-5.791-5.778-5.791-3.196 0-5.779 2.611-5.779 5.791a5.782 5.782 0 005.779 5.778"/><path d="M50.185 7.871a54.411 54.411 0 00-1.921-.056c-22.271 0-40.397 18.133-40.397 40.389 0 10.812 4.201 20.944 11.811 28.564 7.642 7.603 17.777 11.804 28.587 11.804 10.767 0 20.903-4.201 28.53-11.804 7.627-7.62 11.85-17.753 11.85-28.564v-1.797H59.796v3.718h24.998c0 .081 0 .476-.018.578-1.27 19.028-17.163 34.1-36.513 34.1-9.795 0-18.979-3.809-25.89-10.726-6.938-6.889-10.756-16.066-10.756-25.873 0-9.75 3.818-18.974 10.756-25.884 6.91-6.905 16.095-10.714 25.89-10.714.421 0 1.448 0 1.921.024V7.871z" fill="#FFF"/><path d="M132.789 16.234h-14.498V79h44.533V66.781h-30.035zM194.72 55.08h11.809v10.975c-2.178.829-6.423 1.655-10.463 1.655-13.05 0-17.397-6.627-17.397-20.089 0-12.836 4.14-20.404 17.19-20.404 7.254 0 11.394 2.279 14.808 6.629l9.014-8.287c-5.491-7.866-15.124-10.248-24.132-10.248-20.304 0-30.966 11.082-30.966 32.206 0 21.022 9.629 32.414 30.864 32.414 9.733 0 19.262-2.484 24.438-6.107v-30.45H194.72z" fill="#636466"/></svg>